# xmcd CD database file
#
# Track frame offsets:
#	151
#	17819
#	34431
#	54821
#	83931
#	100254
#	120707
#	137580
#	148495
#	170660
#	192359
#
# Disc length: 2971 seconds
#
# Revision: 0
# Processed by: cddbd v1.5.2PL0 Copyright (c) Steve Scherf et al.
# Submitted via: CDex 1.51
#
DISCID=9e0b990b
DTITLE=Phil Abraham Trio - Fredaines
DYEAR=1999
DGENRE=Jazz
TTITLE0=Les Gens Siples
TTITLE1=Pick Yourself Up
TTITLE2=Les Choses de la Vie
TTITLE3=Walkin' Tip-Toe
TTITLE4=Jeanne et Louise
TTITLE5=Saint-Thomas
TTITLE6=Another Way
TTITLE7=Scoot
TTITLE8=Here's That Rainy Day
TTITLE9=Both Worlds
TTITLE10=Lucky Thirds
EXTD=YEAR: 1999
EXTT0=
EXTT1=
EXTT2=
EXTT3=
EXTT4=
EXTT5=
EXTT6=
EXTT7=
EXTT8=
EXTT9=
EXTT10=
PLAYORDER=
